<svg xmlns="http://www.w3.org/2000/svg" width="179" height="47" viewBox="0 0 179 47"><g fill="none" fill-rule="evenodd"><path fill="#FFF" d="M153 16v14.12c0 7.85 5.44 10.26 12.5 10.26 7.04 0 12.5-2.41 12.5-10.26V16h-8.34v12.45c0 3.02-.72 5.16-4.17 5.16-3.44 0-4.17-2.14-4.17-5.16V16H153zm-12.9 23.56l-.04-2.65h-.1a8.42 8.42 0 0 1-7.2 3.44 12.28 12.28 0 0 1-12.09-12.73 12.15 12.15 0 0 1 11.99-12.6c2.8-.08 5.39.93 7.3 2.98V1H148v38.56h-7.9zm-5.06-17.28h-.13a5.2 5.2 0 0 0-5.4 5.4 5.46 5.46 0 0 0 10.93 0 5.18 5.18 0 0 0-5.4-5.4zm-16.83 5.9l-.08.81h-17.89a4.75 4.75 0 0 0 5.4 5.3 4.36 4.36 0 0 0 4.08-2.27H118c-1.37 5.61-6.9 8.26-12.3 8.26-7.93 0-13.87-4.65-13.87-12.6 0-7.96 5.47-12.73 13.26-12.73 8.3 0 13.13 5.1 13.13 13.23zm-17.8-3.66h9.91c-.6-2.23-2.63-4.12-4.94-4.12-2.3 0-4.38 1.9-4.97 4.12zM83.88 1.92a4.73 4.73 0 1 0 .04 9.47 4.73 4.73 0 0 0-.04-9.47zM88 16h-8v23.63h8zm-45.95-.02h-8.07v23.65h7.98V28.25c0-2.64.36-6.69 4.14-6.69s3.88 4.05 3.88 6.7v11.37H58V28.25c0-2.82.49-6.49 4.41-6.49 3.6 0 3.65 4.03 3.65 6.5l-.17 11.37h8.17v-15.2c0-5.4-2.09-9.4-8.17-9.4a9.16 9.16 0 0 0-8.12 4.53 9.56 9.56 0 0 0-15.73-.78v-2.8zM28.08 16v23.63H20.1v-2.65a8.4 8.4 0 0 1-7.2 3.44 12.73 12.73 0 0 1 0-25.4 9.76 9.76 0 0 1 7.41 3.1V16h7.77zm-12.93 6.35h-.13a5.2 5.2 0 0 0-5.4 5.4 5.46 5.46 0 1 0 10.93 0 5.18 5.18 0 0 0-5.4-5.4z"/><path stroke="#FFF" stroke-width="2" d="M178 45H1"/></g></svg>
